<svg xmlns="http://www.w3.org/2000/svg" width="209.563" height="47.823" viewBox="0 0 209.563 47.823">
  <g id="Group_14" data-name="Group 14" transform="translate(-88.015 -96.891)">
    <path id="Path_17" data-name="Path 17" d="M128.37,107.6H132.7v3.462a11.338,11.338,0,0,1,8.439-4c6.762,0,11.252,4.328,11.252,10.82v16.77h-4.328V118.64c0-4.652-3.083-7.79-7.681-7.79s-7.682,3.138-7.682,7.79v16.013H128.37Z" fill="#fff"/>
    <path id="Path_18" data-name="Path 18" d="M169.537,131.407c-5.3,0-8.98-3.787-9.2-9.413l22.775-.02c0-8.71-5.41-14.911-13.578-14.911s-13.579,5.626-13.579,14.065,5.41,14.066,13.579,14.066a13.438,13.438,0,0,0,12.983-9.738h-4.328A8.956,8.956,0,0,1,169.537,131.407Zm0-20.557c4.706,0,7.952,2.651,8.98,7.357h-17.96C161.584,113.5,164.83,110.85,169.537,110.85Z" fill="#fff"/>
    <path id="Path_19" data-name="Path 19" d="M210.811,114.15a9.539,9.539,0,0,0,4-7.357c0-5.572-4.382-9.251-10.981-9.251H187.766v37.111h18.5c6.87,0,11.469-4.22,11.469-10.549A10.586,10.586,0,0,0,210.811,114.15Zm-18.177-12.28h11.2c3.678,0,6.113,2.164,6.113,5.355s-2.435,5.356-6.113,5.356h-11.2Zm13.633,28.455H192.634V116.909h13.687c3.949,0,6.546,2.7,6.546,6.762A6.261,6.261,0,0,1,206.267,130.325Z" fill="#fff"/>
    <rect id="Rectangle_16" data-name="Rectangle 16" width="4.328" height="37.111" transform="translate(221.845 97.542)" fill="#fff"/>
    <rect id="Rectangle_17" data-name="Rectangle 17" width="4.328" height="27.049" transform="translate(232.663 107.604)" fill="#fff"/>
    <rect id="Rectangle_18" data-name="Rectangle 18" width="5.323" height="5.323" rx="2.661" transform="translate(232.165 97.216)" fill="#fff"/>
    <path id="Path_20" data-name="Path 20" d="M242.4,107.6h4.328v3.462a11.338,11.338,0,0,1,8.439-4c6.762,0,11.252,4.328,11.252,10.82v16.77h-4.327V118.64c0-4.652-3.084-7.79-7.682-7.79s-7.682,3.138-7.682,7.79v16.013H242.4Z" fill="#fff"/>
    <path id="Path_21" data-name="Path 21" d="M293.25,107.6v4.6a12.375,12.375,0,0,0-9.846-5.139c-8.06,0-13.416,5.626-13.416,14.065s5.356,14.066,13.416,14.066a12.216,12.216,0,0,0,9.846-5.14v14.66h4.328V107.6Zm-9.413,23.8c-5.734,0-9.521-4.112-9.521-10.279a11.637,11.637,0,0,1,2.38-7.249,10.158,10.158,0,0,1,7.141-3.029c5.626,0,9.413,4.111,9.413,10.278S289.463,131.407,283.837,131.407Z" fill="#fff"/>
    <path id="Path_22" data-name="Path 22" d="M106.138,96.891c-10.873,0-18.123,7.681-18.123,19.151s7.25,19.151,18.123,19.151,18.123-7.681,18.123-19.151S117.01,96.891,106.138,96.891Zm0,33.975c-7.952,0-13.255-5.952-13.255-14.824s5.3-14.824,13.255-14.824,13.254,5.952,13.254,14.824S114.09,130.866,106.138,130.866Z" fill="#fff"/>
  </g>
</svg>
