<svg xmlns="http://www.w3.org/2000/svg" width="642.23" height="145.566" viewBox="0 0 642.23 145.566">
  <g id="Group_6" data-name="Group 6" transform="translate(-638.885 -467.217)">
    <path id="Path_8" data-name="Path 8" d="M735.045,524.913c0,27.19-16.25,45.43-40.62,45.43s-40.62-18.24-40.62-45.43h-14.92c0,35.15,22.22,58.69,55.54,58.69s55.54-23.54,55.54-58.69Z" fill="#fff"/>
    <path id="Path_9" data-name="Path 9" d="M762.558,499.053h13.263v10.611c5.8-7.294,16.247-12.268,25.863-12.268,20.724,0,34.484,13.263,34.484,33.157v51.394H822.905V532.874c0-14.257-9.45-23.874-23.542-23.874s-23.542,9.617-23.542,23.874v49.073H762.558Z" fill="#fff"/>
    <path id="Path_10" data-name="Path 10" d="M888.719,572c-16.248,0-27.521-11.605-28.184-28.846l69.8-.062c0-26.693-16.578-45.7-41.612-45.7s-41.613,17.241-41.613,43.1,16.578,43.1,41.613,43.1a41.185,41.185,0,0,0,39.789-29.842H915.244C911.6,564.705,900.987,572,888.719,572Zm0-63c14.423,0,24.371,8.124,27.52,22.547H861.2C864.347,517.124,874.295,509,888.719,509Z" fill="#fff"/>
    <path id="Path_11" data-name="Path 11" d="M1015.209,519.114c7.294-5.14,12.267-14.258,12.267-22.547,0-17.076-13.428-28.35-33.654-28.35H944.583v113.73h56.7c21.056,0,35.147-12.932,35.147-32.328A32.443,32.443,0,0,0,1015.209,519.114ZM959.5,481.48h34.318c11.273,0,18.734,6.632,18.734,16.413s-7.461,16.413-18.734,16.413H959.5Zm41.778,87.2H959.5V527.569h41.944c12.1,0,20.061,8.289,20.061,20.723C1021.509,560.56,1013.385,568.684,1001.282,568.684Z" fill="#fff"/>
    <rect id="Rectangle_6" data-name="Rectangle 6" width="13.263" height="113.729" transform="translate(1049.022 468.217)" fill="#fff"/>
    <rect id="Rectangle_7" data-name="Rectangle 7" width="13.263" height="82.894" transform="translate(1082.177 499.053)" fill="#fff"/>
    <rect id="Rectangle_8" data-name="Rectangle 8" width="16.313" height="16.313" rx="8.156" transform="translate(1080.651 467.217)" fill="#fff"/>
    <path id="Path_12" data-name="Path 12" d="M1112.016,499.053h13.263v10.611c5.8-7.294,16.247-12.268,25.863-12.268,20.723,0,34.484,13.263,34.484,33.157v51.394h-13.263V532.874c0-14.257-9.45-23.874-23.542-23.874s-23.542,9.617-23.542,23.874v49.073h-13.263Z" fill="#fff"/>
    <path id="Path_13" data-name="Path 13" d="M1267.852,499.053v14.092c-6.466-9.449-18.568-15.749-30.174-15.749-24.7,0-41.114,17.241-41.114,43.1s16.412,43.1,41.114,43.1c11.772,0,23.874-6.3,30.174-15.75v44.928h13.263V499.053ZM1239.006,572c-17.575,0-29.179-12.6-29.179-31.5,0-8.455,2.984-17.408,7.294-22.215,5.139-5.637,13.927-9.285,21.885-9.285,17.241,0,28.846,12.6,28.846,31.5S1256.247,572,1239.006,572Z" fill="#fff"/>
    <g id="Group_5" data-name="Group 5">
      <g id="Group_4" data-name="Group 4">
        <rect id="Rectangle_9" data-name="Rectangle 9" width="20.295" height="20.295" rx="10.148" transform="translate(708.911 493.284)" fill="#efa9ae"/>
        <rect id="Rectangle_10" data-name="Rectangle 10" width="32.174" height="10.506" transform="translate(655.704 498.178)" fill="#efa9ae"/>
      </g>
      <path id="Path_14" data-name="Path 14" d="M735.045,524.913c0,27.19-16.25,45.43-40.62,45.43s-40.62-18.24-40.62-45.43h-14.92c0,35.15,22.22,58.69,55.54,58.69s55.54-23.54,55.54-58.69Z" fill="#efa9ae"/>
    </g>
  </g>
</svg>
