<svg xmlns="http://www.w3.org/2000/svg" width="289.781" height="56.514" viewBox="0 0 289.781 56.514">
  <g id="Group_44" data-name="Group 44" transform="translate(-638.885 -467.217)">
    <path id="Path_64" data-name="Path 64" d="M682.273,489.617c0,10.556-7.332,17.637-18.328,17.637s-18.328-7.081-18.328-17.637h-6.732c0,13.646,10.026,22.785,25.06,22.785s25.06-9.139,25.06-22.785Z" fill="#fff"/>
    <path id="Path_65" data-name="Path 65" d="M694.688,479.577h5.984V483.7a16.786,16.786,0,0,1,11.67-4.762c9.35,0,15.559,5.149,15.559,12.873v19.952h-5.984V492.707c0-5.535-4.264-9.268-10.623-9.268s-10.622,3.733-10.622,9.268v19.052h-5.984Z" fill="#fff"/>
    <path id="Path_66" data-name="Path 66" d="M751.612,507.9c-7.33,0-12.417-4.505-12.716-11.2l31.492-.024c0-10.363-7.48-17.74-18.776-17.74s-18.775,6.693-18.775,16.734,7.48,16.735,18.775,16.735c8.379,0,15.56-4.634,17.954-11.586h-5.985C761.936,505.065,757.148,507.9,751.612,507.9Zm0-24.458c6.509,0,11,3.154,12.418,8.753H739.2C740.616,486.593,745.1,483.439,751.612,483.439Z" fill="#fff"/>
    <path id="Path_67" data-name="Path 67" d="M808.686,487.365c3.291-1.995,5.535-5.535,5.535-8.753,0-6.63-6.059-11.007-15.185-11.007H776.819v44.154H802.4c9.5,0,15.859-5.02,15.859-12.551C818.261,493.93,814.446,489.167,808.686,487.365Zm-25.135-14.61h15.485c5.087,0,8.453,2.574,8.453,6.372s-3.366,6.372-8.453,6.372H783.551ZM802.4,506.61H783.551V490.648h18.926c5.461,0,9.052,3.218,9.052,8.046C811.529,503.456,807.863,506.61,802.4,506.61Z" fill="#fff"/>
    <rect id="Rectangle_49" data-name="Rectangle 49" width="5.984" height="44.154" transform="translate(823.943 467.606)" fill="#fff"/>
    <rect id="Rectangle_50" data-name="Rectangle 50" width="5.984" height="32.182" transform="translate(838.903 479.577)" fill="#fff"/>
    <path id="Path_68" data-name="Path 68" d="M841.9,467.217h0a3.453,3.453,0,0,1,3.68,3.167h0a3.453,3.453,0,0,1-3.68,3.167h0a3.453,3.453,0,0,1-3.681-3.167h0A3.453,3.453,0,0,1,841.9,467.217Z" fill="#fff"/>
    <path id="Path_69" data-name="Path 69" d="M852.367,479.577h5.984V483.7a16.786,16.786,0,0,1,11.67-4.762c9.35,0,15.559,5.149,15.559,12.873v19.952H879.6V492.707c0-5.535-4.264-9.268-10.623-9.268s-10.622,3.733-10.622,9.268v19.052h-5.984Z" fill="#fff"/>
    <path id="Path_70" data-name="Path 70" d="M922.681,479.577v5.471c-2.917-3.668-8.378-6.114-13.614-6.114-11.146,0-18.552,6.693-18.552,16.734s7.406,16.735,18.552,16.735c5.311,0,10.772-2.446,13.614-6.115v17.443h5.985V479.577ZM909.665,507.9c-7.929,0-13.165-4.891-13.165-12.229a12.641,12.641,0,0,1,3.291-8.625,15.237,15.237,0,0,1,9.874-3.6c7.78,0,13.016,4.892,13.016,12.229S917.445,507.9,909.665,507.9Z" fill="#fff"/>
    <g id="Group_43" data-name="Group 43">
      <g id="Group_42" data-name="Group 42">
        <path id="Path_71" data-name="Path 71" d="M652.83,477.337h0c2.529,0,4.579,1.764,4.579,3.94h0c0,2.176-2.05,3.939-4.579,3.939h0c-2.529,0-4.579-1.763-4.579-3.939h0C648.251,479.1,650.3,477.337,652.83,477.337Z" fill="#efa9ae"/>
        <path id="Path_72" data-name="Path 72" d="M675.06,477.337h0c2.529,0,4.579,1.764,4.579,3.94h0c0,2.176-2.05,3.939-4.579,3.939h0c-2.528,0-4.578-1.763-4.578-3.939h0C670.482,479.1,672.532,477.337,675.06,477.337Z" fill="#efa9ae"/>
      </g>
      <path id="Path_73" data-name="Path 73" d="M682.273,489.617c0,10.556-7.332,17.637-18.328,17.637s-18.328-7.081-18.328-17.637h-6.732c0,13.646,10.026,22.785,25.06,22.785s25.06-9.139,25.06-22.785Z" fill="#efa9ae"/>
    </g>
  </g>
</svg>
